<svg xmlns="http://www.w3.org/2000/svg" viewBox="0 0 48 48"><circle cx="24" cy="24" r="22" fill="#fff"/><path d="M24 2a22 22 0 0 1 19 11H24a11 11 0 0 0-10.4 7.5L6 9A22 22 0 0 1 24 2z" fill="#EA4335"/><path d="M45.5 13A22 22 0 0 1 26 45.9l8.5-14.7A11 11 0 0 0 35 24c0-2-1-5-2-6.9z" fill="#FBBC05" transform="rotate(8 24 24)"/><path d="M13.6 20.5A11 11 0 0 0 24 35c1.6 0 3.4-.4 4.8-1L20.2 46A22 22 0 0 1 6 9z" fill="#34A853"/><circle cx="24" cy="24" r="10" fill="#fff"/><circle cx="24" cy="24" r="8" fill="#4285F4"/></svg>
