<svg xmlns="http://www.w3.org/2000/svg" viewBox="0 0 48 48"><defs><linearGradient id="f1" x1="0" y1="0" x2="1" y2="1"><stop offset="0" stop-color="#FFDB4D"/><stop offset=".5" stop-color="#FF7139"/><stop offset="1" stop-color="#E3206B"/></linearGradient></defs><circle cx="24" cy="24" r="21" fill="url(#f1)"/><path d="M24 9c8 0 14 6.3 14 14.5S31.8 38 24 38c-7 0-13-5-14-11.5 2 3 5 4.5 8 4.5-3-2-4.5-5-4-8.5 1.5 2 3.5 3 6 3-2.5-3-2.5-7 0-10 1 3 3.5 5 7 5.5-1.5-2.5-1.5-5 0-7.5z" fill="#1a0b2e" opacity=".28"/></svg>
