<svg xmlns="http://www.w3.org/2000/svg" viewBox="0 0 48 48"><rect width="48" height="48" rx="10" fill="#0D1117"/><path fill="#fff" d="M24 8a16 16 0 0 0-5 31.2c.8.2 1.1-.4 1.1-.8v-3c-4.5 1-5.4-2.2-5.4-2.2-.7-1.8-1.8-2.3-1.8-2.3-1.4-1 .1-1 .1-1 1.6.1 2.5 1.7 2.5 1.7 1.4 2.4 3.7 1.7 4.6 1.3.1-1 .6-1.7 1-2.1-3.6-.4-7.3-1.8-7.3-7.9 0-1.7.6-3.2 1.6-4.3-.2-.4-.7-2 .2-4.2 0 0 1.3-.4 4.4 1.6a15.3 15.3 0 0 1 8 0c3.1-2 4.4-1.6 4.4-1.6.9 2.2.4 3.8.2 4.2 1 1.1 1.6 2.6 1.6 4.3 0 6.1-3.7 7.5-7.3 7.9.6.5 1.1 1.5 1.1 3v4.4c0 .4.3 1 1.1.8A16 16 0 0 0 24 8z"/></svg>
